<svg width="2713" height="801" viewBox="0 0 2713 801" fill="none" xmlns="http://www.w3.org/2000/svg">
<rect x="10" y="10" width="780" height="780" fill="#A70007" stroke="#162435" stroke-width="20"/>
<path d="M797.85 698.95V689.15H791.32V680.33H784.3V689.15H779.28V675.91H767.24V682.62H762.72V698.78H759.21V669.56H747.16V698.78H744.65V665.56H731.1V621.88H724.95V616.86H721.64H719.74H716.67V621.88H714.54H712.4V616.86H709.33H707.43H704.12V621.88H697.97V665.56H684.43V698.78H681.92V669.56H677.32V585.97H671.29V581.96H664.57L663.26 561.21L661.96 581.96H655.23V585.97H652.84L652.24 576.33L651.63 585.97H649.21V689.15H644.77V680.33H644.1V633.48H641.09V625.7H635.25V591.79H632.08V585H629.81V580.02H624.38V571.87H615.32V556.47H612.6V552.39H607.16V542.88H605.62C605.17 539.37 602.18 536.65 598.55 536.65C594.92 536.65 591.93 539.36 591.48 542.88H589.94V552.39H587.22V625.71H584.62V633.49H578.6V674.32H577.01V672.64H577.59V649.54H570.79V612.85V610.59V601.53H568.99V606.74H564.01V610.59H546.34V630.41H543.89V635.93H539.37V656H535.61V659.67H535.28V635.1L536.31 631.01H537.02V628.67H534.52V620.2H535.28V616.5H534V612.12H533.44V610.95H532.87V593.03H532.32H531.77V610.94H531.2V612.11H530.64V616.49H529.36V620.19H530.13V628.66H527.63V631H528.34L529.36 635.09V665.71H528.84V647.45V644.44H521.06V647.45H513.28V660.5H502.32V657.31H501.07V637.74H498.37L497.03 616.45L495.69 637.74H490.9L489.65 611.06L488.41 637.74H484.01V657.31H481.67V655.99H476.15V651.98H472.64V647.46H465.61V659.8H462.85V648.61H459.94V577.33L440.49 542.38L441.08 541.77L440.17 540.43L440.08 537.43L440.81 536.52L440.03 535.85L439.61 521.61L439.19 535.78L438.41 536.75L439.14 537.38L439.05 540.51L438.16 541.43L438.76 542.33L427.8 578.41V619.46L403.84 626.96L402.94 647.44H401.37V642.56H380.79V687.2H377.78V684.57H375.27V669.53H365.23V660.49H352.16V592.05H330.69V632.62L329.99 638.93H328V536.64H325.68V530.87H321.87V526.28H320.3V523.66H312.82L311.75 501L310.64 523.66H303.15V526.28H301.58V530.87H297.77V536.64H295.46V684.6H281.45V638.93H277.44V604.8H273.93V601.79H270.42V576.2H268.92V572.69H266.32H263.67H260.63H257.97H255.38V576.2H253.37V601.79H250.36V638.93H247.29C247.36 638.38 247.3 637.81 247.07 637.27C246.37 635.6 244.44 634.81 242.77 635.52C241.1 636.22 240.31 638.15 241.02 639.82C241.72 641.49 243.65 642.28 245.31 641.58C245.98 641.3 246.5 640.82 246.85 640.24V645.03C246.7 645.04 246.54 645.04 246.38 645.07C244.6 645.42 243.45 647.15 243.8 648.93C244.09 650.44 245.38 651.48 246.84 651.56V655.08C245.59 655.54 244.7 656.74 244.7 658.14C244.7 659.55 245.59 660.74 246.84 661.21V665.64C245.32 665.63 243.95 666.68 243.62 668.22C243.24 670 244.36 671.75 246.13 672.13C246.37 672.18 246.61 672.2 246.84 672.2V677.18C246.54 676.38 245.93 675.7 245.09 675.34C243.43 674.61 241.49 675.38 240.77 677.04C240.05 678.7 240.81 680.64 242.47 681.36C244.13 682.08 246.07 681.32 246.79 679.66C246.82 679.6 246.83 679.54 246.85 679.48V682.09H238.82V683.04C238 683.2 237.24 683.68 236.73 684.43C236.16 685.29 236.06 686.31 236.34 687.22H233.39C239.83 679.26 243.7 669.14 243.7 658.13C243.7 632.6 222.93 611.83 197.4 611.83C171.87 611.83 151.1 632.6 151.1 658.13C151.1 660.65 151.31 663.13 151.7 665.55H149.95C149.84 665.45 149.73 665.35 149.61 665.27C148.34 664.42 146.7 664.58 145.61 665.55H135.06V617.92H132.93V612.9H129.86L128.79 595.08L127.96 612.9H124.65V617.92H118.5V661.61H104.95V694.83H102.44V665.6H90.36V694.82H86.85V678.66H82.34V671.95H70.29V685.19H65.27V676.37H58.24V685.19H55.23V665.59H27.88V670.35H19.6V694.81L0.53 698.93H0V800.25H800V698.95H797.85ZM197.63 659.39L200.15 665.41H197.63V659.39ZM204.67 650.48L198.08 657.07L204.67 641.01V650.48ZM209.03 630.4L209.19 630.01V630.4H209.03ZM177.41 678.45L188.36 667.5V678.45H177.41ZM200.69 665.41L198.1 659.22L202.16 663.28V665.41H200.69ZM198.44 658.84L202.16 660.37V662.56L198.44 658.84ZM198.65 658.39H202.16V659.83L198.65 658.39ZM198.63 657.88L202.16 656.4V657.88H198.63ZM203.15 655.99L204.68 655.35V655.99H203.15ZM198.46 657.41L204.67 651.2V654.81L198.46 657.41ZM197.12 665.41H194.66L197.12 659.42V665.41ZM194.12 665.41H190.46L196.66 659.2L194.12 665.41ZM189.74 665.41H188.36V666.79L177.07 678.08V669.56H170.74L196.29 658.87L189.74 665.41ZM229.76 687.22V671.69L237.76 674.97C235.87 679.49 233.24 683.62 230.03 687.22H229.76ZM237.95 674.5L229.77 671.14V658.38H241.13C241.1 664.08 239.96 669.52 237.95 674.5ZM229.76 657.88V655.99H227.25V645.91L237.83 641.48C239.92 646.54 241.09 652.08 241.12 657.88H229.76ZM227.26 645.36V630.4H225.47L228.48 627.39C232.33 631.29 235.47 635.9 237.65 641.02L227.26 645.36ZM224.76 630.4H222.74V624.88H211.29L214.22 617.75C219.45 619.94 224.16 623.11 228.13 627.04L224.76 630.4ZM210.74 624.88H209.19V628.67L208.48 630.39H204.68V639.67L197.63 656.85V614.38C203.32 614.41 208.75 615.54 213.74 617.56L210.74 624.88ZM197.12 656.88L180.73 617.68C185.79 615.59 191.33 614.42 197.12 614.39V656.88ZM180.26 617.87L196.65 657.05L166.63 627.03C170.53 623.18 175.14 620.05 180.26 617.87ZM166.27 627.39L196.3 657.42L156.99 641.29C159.17 636.07 162.35 631.36 166.27 627.39ZM156.8 641.77L196.09 657.88H153.61C153.65 652.19 154.79 646.75 156.8 641.77ZM196.11 658.39L169.42 669.55H163.91V665.55H154.25C153.85 663.22 153.63 660.83 153.62 658.39H196.11ZM151.58 658.13C151.58 632.88 172.12 612.33 197.38 612.33C222.64 612.33 243.18 632.87 243.18 658.13C243.18 669.17 239.25 679.31 232.73 687.22H230.7C237.51 679.43 241.65 669.26 241.65 658.13C241.65 633.73 221.79 613.87 197.38 613.87C172.97 613.87 153.11 633.73 153.11 658.13C153.11 660.66 153.33 663.13 153.74 665.55H152.18C151.79 663.13 151.58 660.66 151.58 658.13Z" fill="#162435"/>
<path d="M197.37 610.82C199.18 610.82 200.65 609.35 200.65 607.53C200.65 605.71 199.19 604.24 197.37 604.24C195.56 604.24 194.08 605.71 194.08 607.53C194.08 609.35 195.56 610.82 197.37 610.82Z" fill="#162435"/>
<path d="M149.1 660.46C150.38 659.18 150.38 657.1 149.1 655.82C147.82 654.53 145.74 654.53 144.46 655.82C143.18 657.1 143.18 659.18 144.46 660.46C145.74 661.74 147.81 661.74 149.1 660.46Z" fill="#162435"/>
<path d="M161.6 625.64C163.41 625.64 164.88 624.17 164.88 622.36C164.88 620.55 163.41 619.08 161.6 619.08C159.79 619.08 158.31 620.55 158.31 622.36C158.31 624.17 159.79 625.64 161.6 625.64Z" fill="#162435"/>
<path d="M233.15 625.64C234.97 625.64 236.43 624.17 236.43 622.36C236.43 620.55 234.96 619.08 233.15 619.08C231.34 619.08 229.87 620.55 229.87 622.36C229.87 624.17 231.34 625.64 233.15 625.64Z" fill="#162435"/>
<path d="M218 614.43C219.68 613.74 220.47 611.82 219.78 610.14C219.08 608.46 217.17 607.67 215.49 608.36C213.82 609.05 213.02 610.97 213.71 612.65C214.41 614.32 216.33 615.12 218 614.43Z" fill="#162435"/>
<path d="M176 614.79C177.69 615.45 179.59 614.63 180.25 612.94C180.92 611.26 180.09 609.35 178.4 608.68C176.71 608.02 174.81 608.85 174.15 610.53C173.48 612.22 174.31 614.12 176 614.79Z" fill="#162435"/>
<path d="M152.19 640.98C153.88 640.32 154.71 638.41 154.04 636.72C153.38 635.03 151.48 634.2 149.79 634.87C148.11 635.54 147.27 637.45 147.94 639.13C148.59 640.82 150.5 641.65 152.19 640.98Z" fill="#162435"/>
<path d="M188.16 611.73C189.93 611.38 191.09 609.65 190.74 607.87C190.38 606.09 188.66 604.93 186.88 605.29C185.1 605.64 183.94 607.37 184.3 609.15C184.65 610.92 186.38 612.08 188.16 611.73Z" fill="#162435"/>
<path d="M155.95 633.24C157.73 632.88 158.88 631.16 158.53 629.38C158.18 627.6 156.45 626.45 154.67 626.8C152.89 627.15 151.73 628.88 152.09 630.66C152.44 632.43 154.17 633.59 155.95 633.24Z" fill="#162435"/>
<path d="M226.13 619.29C227.91 618.94 229.06 617.21 228.71 615.44C228.35 613.65 226.63 612.5 224.85 612.86C223.07 613.21 221.92 614.94 222.27 616.72C222.63 618.49 224.36 619.64 226.13 619.29Z" fill="#162435"/>
<path d="M209.1 611.25C210.61 610.24 211.02 608.2 210.01 606.7C209 605.19 206.96 604.78 205.45 605.79C203.94 606.8 203.53 608.84 204.54 610.35C205.55 611.85 207.59 612.25 209.1 611.25Z" fill="#162435"/>
<path d="M167.96 619.78C169.75 620.11 171.45 618.92 171.77 617.14C172.09 615.36 170.91 613.64 169.13 613.33C167.35 613 165.64 614.19 165.31 615.97C165 617.75 166.18 619.46 167.96 619.78Z" fill="#162435"/>
<path d="M149.71 650.12C151.24 649.14 151.68 647.12 150.69 645.59C149.72 644.07 147.68 643.62 146.16 644.6C144.64 645.58 144.19 647.61 145.17 649.14C146.15 650.66 148.19 651.1 149.71 650.12Z" fill="#162435"/>
<path d="M236.59 631.66C237.61 633.16 239.65 633.56 241.15 632.54C242.65 631.52 243.05 629.49 242.03 627.98C241.01 626.48 238.97 626.08 237.47 627.09C235.97 628.12 235.58 630.16 236.59 631.66Z" fill="#162435"/>
<path d="M533.32 592.11C533.32 591.6 532.89 591.19 532.35 591.19C531.81 591.19 531.38 591.6 531.38 592.11C531.38 592.62 531.81 593.04 532.35 593.04C532.88 593.03 533.32 592.62 533.32 592.11Z" fill="#162435"/>
<path d="M431.173 411.455C420.9 421.727 409.6 428.918 397.273 433.027C384.945 437.136 370.564 439.191 354.127 439.191C330.5 439.191 312.18 435.082 299.168 426.864C286.156 418.303 278.109 403.921 275.027 383.718L267.323 332.355C263.898 308.385 259.105 290.236 252.941 277.909C247.12 265.582 238.217 259.418 226.232 259.418H203.118V377.555C203.118 390.567 203.974 399.983 205.686 405.805C207.741 411.626 211.165 415.564 215.959 417.618C220.753 419.673 228.629 421.042 239.586 421.727V432C219.726 430.973 191.133 430.459 153.809 430.459C112.376 430.459 81.9 430.973 62.3818 432V421.727C73.3394 421.042 81.2152 419.673 86.0091 417.618C91.1455 415.564 94.5697 411.626 96.2818 405.805C97.994 399.983 98.85 390.567 98.85 377.555V122.791C98.85 109.779 97.8227 100.362 95.7682 94.541C94.0561 88.7198 90.803 84.7819 86.0091 82.7273C81.2152 80.6728 73.3394 79.3031 62.3818 78.6182V68.3455C81.9 69.3728 111.348 69.8864 150.727 69.8864L209.795 69.3728C216.644 69.0304 224.52 68.8591 233.423 68.8591C285.471 68.8591 324.165 76.2213 349.505 90.9455C375.186 105.67 388.027 128.099 388.027 158.232C388.027 183.914 378.439 205.829 359.264 223.977C340.088 242.126 307.9 253.255 262.7 257.364C297.627 259.761 323.994 266.438 341.8 277.395C359.606 288.011 370.564 303.762 374.673 324.65L385.459 378.068C387.856 390.738 390.767 399.47 394.191 404.264C397.615 409.058 402.409 411.455 408.573 411.455C414.736 411.455 420.044 409.229 424.495 404.777L431.173 411.455ZM230.855 78.6182C222.979 78.6182 216.986 79.8167 212.877 82.2137C209.111 84.6106 206.542 88.891 205.173 95.0546C203.803 101.218 203.118 110.464 203.118 122.791V249.145H216.986C241.298 249.145 257.906 241.783 266.809 227.059C275.712 211.992 280.164 190.933 280.164 163.882C280.164 135.803 276.226 114.573 268.35 100.191C260.817 85.8091 248.318 78.6182 230.855 78.6182Z" fill="#162435"/>
<path d="M1008.81 344.074H949.42V112.657H878.88V63.0675H1079.16V112.657H1008.81V344.074Z" fill="white"/>
<path d="M1292.43 344.074H1233.8V218.563C1233.8 203.058 1231.37 191.462 1226.5 183.773C1221.76 175.957 1214.39 172.049 1204.39 172.049C1196.83 172.049 1190.49 173.587 1185.37 176.662C1180.24 179.737 1176.14 184.286 1173.06 190.309C1169.99 196.331 1167.81 203.763 1166.53 212.605C1165.25 221.446 1164.61 231.569 1164.61 242.973V344.074H1105.98V45H1164.61V105.93C1164.61 111.311 1164.48 117.014 1164.22 123.036C1163.97 128.93 1163.65 134.376 1163.26 139.374C1162.75 145.268 1162.3 151.034 1161.92 156.672H1164.99C1171.27 145.524 1179.28 137.516 1189.02 132.646C1198.76 127.649 1209.78 125.15 1222.08 125.15C1232.71 125.15 1242.32 126.688 1250.91 129.763C1259.62 132.71 1267.05 137.388 1273.2 143.794C1279.36 150.201 1284.1 158.402 1287.43 168.397C1290.76 178.264 1292.43 190.116 1292.43 203.955V344.074Z" fill="white"/>
<path d="M1427.85 166.859C1417.47 166.859 1408.82 170.511 1401.9 177.815C1395.11 185.119 1391.2 196.587 1390.17 212.22H1464.94C1464.81 205.685 1463.98 199.663 1462.44 194.153C1460.91 188.643 1458.6 183.902 1455.52 179.929C1452.45 175.829 1448.61 172.625 1443.99 170.319C1439.38 168.013 1434 166.859 1427.85 166.859ZM1435.34 347.918C1419.97 347.918 1405.81 345.676 1392.87 341.191C1379.92 336.706 1368.78 329.979 1359.42 321.009C1350.07 311.912 1342.76 300.507 1337.51 286.796C1332.38 272.958 1329.82 256.748 1329.82 238.168C1329.82 219.332 1332.19 202.866 1336.93 188.771C1341.67 174.676 1348.27 162.951 1356.73 153.597C1365.32 144.115 1375.57 137.003 1387.48 132.262C1399.53 127.521 1412.85 125.15 1427.46 125.15C1441.69 125.15 1454.5 127.329 1465.9 131.685C1477.44 135.914 1487.17 142.193 1495.12 150.522C1503.19 158.851 1509.34 169.102 1513.57 181.275C1517.93 193.32 1520.11 207.159 1520.11 222.792V251.238H1389.02C1389.28 259.439 1390.56 266.871 1392.87 273.534C1395.3 280.069 1398.63 285.643 1402.86 290.256C1407.22 294.741 1412.41 298.201 1418.43 300.635C1424.58 303.07 1431.56 304.287 1439.38 304.287C1445.91 304.287 1452.06 303.967 1457.83 303.326C1463.73 302.557 1469.43 301.468 1474.94 300.059C1480.45 298.649 1485.89 296.919 1491.28 294.869C1496.66 292.691 1502.17 290.192 1507.8 287.373V332.734C1502.68 335.425 1497.49 337.731 1492.24 339.653C1487.11 341.447 1481.66 342.985 1475.9 344.266C1470.13 345.548 1463.92 346.445 1457.25 346.957C1450.59 347.598 1443.29 347.918 1435.34 347.918Z" fill="white"/>
<path d="M1712.53 187.81H1728.67C1745.2 187.81 1757.06 184.542 1764.23 178.007C1771.41 171.344 1775 161.606 1775 148.792C1775 135.465 1771.15 125.983 1763.46 120.345C1755.77 114.707 1743.86 111.888 1727.71 111.888H1712.53V187.81ZM1712.53 236.246V344.074H1652.94V63.0675H1729.83C1765.83 63.0675 1792.42 70.051 1809.59 84.018C1826.76 97.8569 1835.35 118.936 1835.35 147.254C1835.35 156.864 1834.07 165.578 1831.5 173.394C1828.94 181.211 1825.48 188.194 1821.13 194.345C1816.9 200.367 1811.96 205.685 1806.33 210.298C1800.82 214.783 1794.99 218.563 1788.83 221.638C1803.06 244.447 1815.81 264.821 1827.08 282.76C1831.95 290.448 1836.63 297.944 1841.11 305.248C1845.73 312.552 1849.83 319.087 1853.42 324.853C1857 330.62 1859.95 335.233 1862.26 338.692L1865.53 344.074H1799.41L1738.48 236.246H1712.53Z" fill="white"/>
<path d="M1881.97 73.6388C1881.97 68.1289 1882.8 63.58 1884.47 59.9921C1886.13 56.2761 1888.38 53.329 1891.2 51.1506C1894.14 48.8441 1897.54 47.2424 1901.38 46.3454C1905.36 45.4485 1909.52 45 1913.88 45C1918.23 45 1922.33 45.4485 1926.18 46.3454C1930.02 47.2424 1933.35 48.8441 1936.17 51.1506C1939.12 53.329 1941.43 56.2761 1943.09 59.9921C1944.89 63.58 1945.78 68.1289 1945.78 73.6388C1945.78 79.0206 1944.89 83.5695 1943.09 87.2855C1941.43 91.0015 1939.12 94.0128 1936.17 96.3193C1933.35 98.4976 1930.02 100.099 1926.18 101.124C1922.33 102.021 1918.23 102.47 1913.88 102.47C1909.52 102.47 1905.36 102.021 1901.38 101.124C1897.54 100.099 1894.14 98.4976 1891.2 96.3193C1888.38 94.0128 1886.13 91.0015 1884.47 87.2855C1882.8 83.5695 1881.97 79.0206 1881.97 73.6388ZM1943.09 344.074H1884.47V129.187H1943.09V344.074Z" fill="white"/>
<path d="M2038.15 344.074L1962.23 129.187H2023.54L2059.1 251.623C2061.28 258.926 2063.14 266.551 2064.67 274.495C2066.34 282.312 2067.37 289.359 2067.75 295.638H2068.9C2069.29 288.847 2070.25 281.671 2071.79 274.111C2073.45 266.423 2075.37 258.926 2077.55 251.623L2112.92 129.187H2174.42L2098.5 344.074H2038.15Z" fill="white"/>
<path d="M2280.25 166.859C2269.87 166.859 2261.22 170.511 2254.3 177.815C2247.51 185.119 2243.6 196.587 2242.57 212.22H2317.34C2317.21 205.685 2316.38 199.663 2314.84 194.153C2313.31 188.643 2311 183.902 2307.92 179.929C2304.85 175.829 2301 172.625 2296.39 170.319C2291.78 168.013 2286.4 166.859 2280.25 166.859ZM2287.74 347.918C2272.37 347.918 2258.21 345.676 2245.26 341.191C2232.32 336.706 2221.17 329.979 2211.82 321.009C2202.47 311.912 2195.16 300.507 2189.91 286.796C2184.78 272.958 2182.22 256.748 2182.22 238.168C2182.22 219.332 2184.59 202.866 2189.33 188.771C2194.07 174.676 2200.67 162.951 2209.13 153.597C2217.72 144.115 2227.97 137.003 2239.88 132.262C2251.93 127.521 2265.25 125.15 2279.86 125.15C2294.09 125.15 2306.9 127.329 2318.3 131.685C2329.84 135.914 2339.57 142.193 2347.52 150.522C2355.59 158.851 2361.74 169.102 2365.97 181.275C2370.33 193.32 2372.51 207.159 2372.51 222.792V251.238H2241.42C2241.68 259.439 2242.96 266.871 2245.26 273.534C2247.7 280.069 2251.03 285.643 2255.26 290.256C2259.62 294.741 2264.81 298.201 2270.83 300.635C2276.98 303.07 2283.96 304.287 2291.78 304.287C2298.31 304.287 2304.46 303.967 2310.23 303.326C2316.13 302.557 2321.83 301.468 2327.34 300.059C2332.85 298.649 2338.29 296.919 2343.67 294.869C2349.06 292.691 2354.57 290.192 2360.2 287.373V332.734C2355.08 335.425 2349.89 337.731 2344.64 339.653C2339.51 341.447 2334.06 342.985 2328.3 344.266C2322.53 345.548 2316.32 346.445 2309.65 346.957C2302.99 347.598 2295.69 347.918 2287.74 347.918Z" fill="white"/>
<path d="M2522.34 125.15C2523.88 125.15 2525.55 125.214 2527.34 125.343C2529.26 125.343 2531.06 125.471 2532.72 125.727C2534.52 125.855 2536.12 126.047 2537.53 126.304C2539.06 126.432 2540.22 126.624 2540.99 126.88V181.851C2539.96 181.595 2538.55 181.339 2536.76 181.083C2534.96 180.826 2533.04 180.634 2530.99 180.506C2529.07 180.25 2527.15 180.122 2525.23 180.122C2523.3 179.993 2521.7 179.929 2520.42 179.929C2512.86 179.929 2505.88 180.89 2499.47 182.812C2493.19 184.735 2487.75 187.874 2483.13 192.231C2478.65 196.459 2475.12 202.097 2472.56 209.145C2470.13 216.064 2468.91 224.585 2468.91 234.708V344.074H2410.29V129.187H2454.69L2463.34 161.477H2466.22C2469.29 155.968 2472.63 150.97 2476.21 146.485C2479.8 142 2483.77 138.22 2488.13 135.145C2492.61 131.942 2497.61 129.507 2503.12 127.841C2508.76 126.047 2515.17 125.15 2522.34 125.15Z" fill="white"/>
<path d="M2712.74 280.261C2712.74 291.538 2710.69 301.404 2706.58 309.861C2702.48 318.318 2696.65 325.366 2689.09 331.004C2681.53 336.642 2672.37 340.871 2661.61 343.69C2650.84 346.509 2638.8 347.918 2625.47 347.918C2618.43 347.918 2611.89 347.662 2605.87 347.149C2599.85 346.765 2594.14 346.06 2588.76 345.035C2583.38 344.01 2578.19 342.729 2573.19 341.191C2568.2 339.653 2563.13 337.731 2558.01 335.425V286.989C2563.39 289.68 2569.03 292.114 2574.92 294.293C2580.95 296.471 2586.9 298.393 2592.8 300.059C2598.69 301.596 2604.39 302.814 2609.9 303.711C2615.54 304.608 2620.73 305.056 2625.47 305.056C2630.73 305.056 2635.21 304.608 2638.93 303.711C2642.64 302.686 2645.66 301.34 2647.96 299.674C2650.4 297.88 2652.13 295.83 2653.15 293.524C2654.3 291.089 2654.88 288.526 2654.88 285.835C2654.88 283.145 2654.43 280.774 2653.54 278.724C2652.77 276.545 2650.91 274.303 2647.96 271.997C2645.01 269.562 2640.66 266.871 2634.89 263.924C2629.25 260.849 2621.63 257.133 2612.02 252.776C2602.66 248.547 2594.53 244.383 2587.61 240.282C2580.82 236.054 2575.18 231.377 2570.69 226.251C2566.34 221.126 2563.07 215.295 2560.89 208.76C2558.71 202.097 2557.62 194.217 2557.62 185.119C2557.62 175.124 2559.55 166.411 2563.39 158.979C2567.23 151.419 2572.68 145.14 2579.73 140.142C2586.78 135.145 2595.23 131.429 2605.1 128.994C2615.09 126.432 2626.18 125.15 2638.35 125.15C2651.17 125.15 2663.34 126.624 2674.87 129.571C2686.4 132.518 2698.26 136.939 2710.43 142.833L2692.75 184.35C2683.01 179.737 2673.72 175.957 2664.88 173.01C2656.03 170.063 2647.19 168.589 2638.35 168.589C2630.41 168.589 2624.64 169.999 2621.05 172.818C2617.59 175.637 2615.86 179.481 2615.86 184.35C2615.86 186.913 2616.31 189.219 2617.21 191.27C2618.11 193.192 2619.9 195.242 2622.59 197.42C2625.28 199.47 2629.06 201.777 2633.93 204.34C2638.8 206.774 2645.14 209.786 2652.96 213.373C2662.06 217.346 2670.26 221.318 2677.56 225.29C2684.87 229.134 2691.14 233.555 2696.4 238.552C2701.65 243.55 2705.69 249.38 2708.51 256.043C2711.33 262.707 2712.74 270.779 2712.74 280.261Z" fill="white"/>
<path d="M879 686.288V393.904H916.198V653.09H1030.79V686.288H879Z" fill="white"/>
<path d="M1186.7 686.288L1179.3 655.89H1177.7C1173.3 661.89 1168.9 667.089 1164.5 671.489C1160.1 675.756 1155.3 679.289 1150.1 682.089C1144.9 684.888 1139.1 686.955 1132.7 688.288C1126.3 689.621 1118.9 690.288 1110.5 690.288C1101.3 690.288 1092.83 688.955 1085.1 686.288C1077.37 683.755 1070.64 679.822 1064.9 674.489C1059.3 669.023 1054.9 662.223 1051.7 654.09C1048.5 645.824 1046.9 636.091 1046.9 624.892C1046.9 603.026 1054.57 586.227 1069.9 574.494C1085.37 562.761 1108.83 556.362 1140.3 555.295L1177.1 553.895V540.096C1177.1 531.163 1176.1 523.697 1174.1 517.697C1172.23 511.697 1169.43 506.898 1165.7 503.298C1162.1 499.565 1157.56 496.898 1152.1 495.298C1146.76 493.698 1140.63 492.898 1133.7 492.898C1122.63 492.898 1112.3 494.498 1102.7 497.698C1093.23 500.898 1084.1 504.765 1075.3 509.298L1062.5 481.899C1072.37 476.566 1083.37 472.033 1095.5 468.3C1107.63 464.567 1120.37 462.7 1133.7 462.7C1147.3 462.7 1159.03 464.1 1168.9 466.9C1178.9 469.566 1187.1 473.899 1193.5 479.899C1200.03 485.765 1204.89 493.298 1208.09 502.498C1211.29 511.697 1212.89 522.83 1212.89 535.896V686.288H1186.7ZM1119.9 660.89C1128.03 660.89 1135.57 659.623 1142.5 657.09C1149.43 654.557 1155.43 650.757 1160.5 645.69C1165.56 640.491 1169.5 634.024 1172.3 626.291C1175.23 618.425 1176.7 609.226 1176.7 598.693V578.894L1148.1 580.294C1136.1 580.827 1126.03 582.16 1117.9 584.294C1109.77 586.427 1103.23 589.427 1098.3 593.293C1093.5 597.026 1090.03 601.626 1087.9 607.092C1085.77 612.426 1084.7 618.492 1084.7 625.292C1084.7 637.558 1087.9 646.557 1094.3 652.29C1100.83 658.023 1109.37 660.89 1119.9 660.89Z" fill="white"/>
<path d="M1434.99 686.288L1401.4 563.095C1400.86 560.695 1400.2 558.028 1399.4 555.095C1398.6 552.029 1397.8 548.829 1397 545.496C1396.2 542.163 1395.33 538.763 1394.4 535.296C1393.6 531.83 1392.8 528.43 1392 525.097C1390.13 517.364 1388.2 509.364 1386.2 501.098H1385C1383.13 509.498 1381.33 517.564 1379.6 525.297C1378.13 531.963 1376.53 538.829 1374.8 545.896C1373.2 552.962 1371.66 558.962 1370.2 563.895L1335.8 686.288H1293.6L1237.41 466.7H1275.6L1301.8 583.494C1303.14 589.493 1304.47 596.026 1305.8 603.093C1307.13 610.026 1308.4 616.959 1309.6 623.892C1310.8 630.691 1311.87 637.158 1312.8 643.291C1313.73 649.29 1314.47 654.223 1315 658.09H1316.2C1316.87 654.623 1317.73 650.024 1318.8 644.291C1320 638.424 1321.27 632.291 1322.6 625.892C1324.07 619.359 1325.53 612.959 1327 606.693C1328.47 600.293 1329.87 594.893 1331.2 590.493L1367 466.7H1406.2L1440.59 590.493C1441.79 595.026 1443.13 600.359 1444.59 606.492C1446.19 612.626 1447.73 618.892 1449.19 625.292C1450.66 631.558 1451.99 637.624 1453.19 643.491C1454.39 649.357 1455.26 654.223 1455.79 658.09H1456.99C1457.39 654.623 1457.99 650.024 1458.79 644.291C1459.73 638.424 1460.79 632.025 1461.99 625.092C1463.19 618.159 1464.46 611.092 1465.79 603.893C1467.26 596.56 1468.73 589.76 1470.19 583.494L1497.59 466.7H1534.79L1477.99 686.288H1434.99Z" fill="white"/>
<path d="M1777.2 531.896H1874V675.289C1866.66 677.689 1859.26 679.822 1851.8 681.689C1844.33 683.555 1836.66 685.088 1828.8 686.288C1820.93 687.622 1812.67 688.622 1804 689.288C1795.33 689.955 1786 690.288 1776 690.288C1755.07 690.288 1736.54 686.822 1720.4 679.889C1704.27 672.822 1690.67 662.823 1679.61 649.89C1668.54 636.824 1660.14 621.025 1654.41 602.493C1648.67 583.827 1645.81 562.895 1645.81 539.696C1645.81 516.764 1648.94 496.032 1655.21 477.499C1661.61 458.967 1670.87 443.234 1683.01 430.302C1695.14 417.236 1710.07 407.236 1727.8 400.303C1745.67 393.237 1766 389.704 1788.8 389.704C1803.6 389.704 1817.8 391.17 1831.4 394.104C1845 397.037 1857.66 401.303 1869.4 406.903L1855 439.301C1850.2 437.035 1845 434.901 1839.4 432.902C1833.93 430.902 1828.26 429.168 1822.4 427.702C1816.53 426.102 1810.47 424.835 1804.2 423.902C1798.07 422.969 1791.93 422.502 1785.8 422.502C1769.53 422.502 1755.14 425.235 1742.6 430.702C1730.07 436.035 1719.54 443.768 1711 453.9C1702.6 464.033 1696.21 476.366 1691.81 490.899C1687.41 505.431 1685.21 521.83 1685.21 540.096C1685.21 557.428 1687.01 573.294 1690.61 587.693C1694.34 602.093 1700.2 614.492 1708.2 624.892C1716.2 635.291 1726.54 643.357 1739.2 649.09C1751.87 654.823 1767.13 657.69 1785 657.69C1790.87 657.69 1796.2 657.556 1801 657.29C1805.93 656.89 1810.47 656.423 1814.6 655.89C1818.73 655.357 1822.6 654.757 1826.2 654.09C1829.93 653.29 1833.53 652.557 1837 651.89V564.695H1777.2V531.896Z" fill="white"/>
<path d="M2021.1 462.7C2024.97 462.7 2029.3 462.9 2034.1 463.3C2038.9 463.567 2043.03 464.033 2046.5 464.7L2041.7 498.298C2037.97 497.632 2034.1 497.098 2030.1 496.698C2026.23 496.165 2022.57 495.898 2019.1 495.898C2010.7 495.898 2003.03 497.632 1996.1 501.098C1989.17 504.431 1983.17 509.298 1978.1 515.697C1973.17 521.964 1969.3 529.563 1966.5 538.496C1963.84 547.296 1962.5 557.095 1962.5 567.895V686.288H1926.11V466.7H1955.7L1960.1 506.898H1961.7C1965.04 501.165 1968.57 495.632 1972.3 490.299C1976.17 484.966 1980.44 480.299 1985.1 476.299C1989.9 472.166 1995.23 468.9 2001.1 466.5C2006.97 463.967 2013.63 462.7 2021.1 462.7Z" fill="white"/>
<path d="M2256.4 576.094C2256.4 594.36 2254.13 610.626 2249.6 624.892C2245.2 639.024 2238.8 650.957 2230.4 660.69C2222.14 670.289 2212.07 677.622 2200.2 682.689C2188.34 687.755 2175 690.288 2160.2 690.288C2146.47 690.288 2133.81 687.755 2122.21 682.689C2110.61 677.622 2100.54 670.289 2092.01 660.69C2083.61 650.957 2077.01 639.024 2072.21 624.892C2067.54 610.626 2065.21 594.36 2065.21 576.094C2065.21 557.962 2067.41 541.896 2071.81 527.897C2076.34 513.764 2082.74 501.898 2091.01 492.298C2099.27 482.566 2109.34 475.233 2121.21 470.3C2133.21 465.233 2146.61 462.7 2161.4 462.7C2175.14 462.7 2187.8 465.233 2199.4 470.3C2211 475.233 2221 482.566 2229.4 492.298C2237.93 501.898 2244.53 513.764 2249.2 527.897C2254 541.896 2256.4 557.962 2256.4 576.094ZM2102.81 576.094C2102.81 603.959 2107.34 624.958 2116.41 639.091C2125.61 653.09 2140.47 660.09 2161.01 660.09C2181.54 660.09 2196.27 653.09 2205.2 639.091C2214.27 624.958 2218.8 603.959 2218.8 576.094C2218.8 548.229 2214.2 527.43 2205 513.697C2195.94 499.831 2181.14 492.898 2160.6 492.898C2140.07 492.898 2125.27 499.831 2116.21 513.697C2107.27 527.43 2102.81 548.229 2102.81 576.094Z" fill="white"/>
<path d="M2443.7 686.288L2438.3 656.89H2436.3C2432.97 662.623 2428.97 667.623 2424.3 671.889C2419.77 676.022 2414.77 679.489 2409.3 682.289C2403.84 684.955 2398.04 686.955 2391.9 688.288C2385.77 689.621 2379.51 690.288 2373.11 690.288C2360.97 690.288 2350.31 688.755 2341.11 685.688C2331.91 682.622 2324.24 677.822 2318.11 671.289C2311.98 664.756 2307.31 656.423 2304.11 646.29C2301.04 636.158 2299.51 624.092 2299.51 610.092V466.7H2335.91V608.092C2335.91 625.425 2339.44 638.424 2346.51 647.09C2353.57 655.757 2364.51 660.09 2379.31 660.09C2390.1 660.09 2399.17 658.356 2406.5 654.89C2413.84 651.423 2419.7 646.357 2424.1 639.691C2428.64 632.891 2431.84 624.558 2433.7 614.692C2435.7 604.826 2436.7 593.493 2436.7 580.694V466.7H2473.1V686.288H2443.7Z" fill="white"/>
<path d="M2629.6 690.288C2621.74 690.288 2614.61 689.422 2608.21 687.688C2601.81 685.955 2596.01 683.688 2590.81 680.889C2585.74 677.955 2581.21 674.556 2577.21 670.689C2573.34 666.823 2569.87 662.756 2566.81 658.49H2564.41C2564.81 663.023 2565.21 667.356 2565.61 671.489C2565.87 674.956 2566.14 678.555 2566.41 682.289C2566.67 685.888 2566.81 688.755 2566.81 690.888V784.683H2530.41V466.7H2560.01L2565.21 496.298H2566.81C2569.87 491.632 2573.34 487.299 2577.21 483.299C2581.07 479.166 2585.54 475.633 2590.61 472.7C2595.81 469.633 2601.61 467.233 2608.01 465.5C2614.41 463.633 2621.6 462.7 2629.6 462.7C2642.14 462.7 2653.54 465.1 2663.8 469.9C2674.07 474.699 2682.8 481.899 2690 491.499C2697.33 500.965 2703 512.764 2707 526.897C2711 541.029 2713 557.428 2713 576.094C2713 594.893 2711 611.426 2707 625.691C2703 639.824 2697.33 651.69 2690 661.29C2682.8 670.889 2674.07 678.155 2663.8 683.088C2653.54 687.888 2642.14 690.288 2629.6 690.288ZM2622.6 492.898C2612.47 492.898 2603.87 494.432 2596.81 497.498C2589.87 500.565 2584.21 505.231 2579.81 511.497C2575.54 517.764 2572.34 525.563 2570.21 534.896C2568.21 544.229 2567.07 555.229 2566.81 567.895V576.094C2566.81 589.56 2567.67 601.559 2569.41 612.092C2571.27 622.492 2574.34 631.291 2578.61 638.491C2583.01 645.557 2588.81 650.957 2596.01 654.69C2603.21 658.29 2612.21 660.09 2623 660.09C2641 660.09 2654.2 652.823 2662.6 638.291C2671.14 623.758 2675.4 602.893 2675.4 575.694C2675.4 547.962 2671.14 527.23 2662.6 513.497C2654.2 499.765 2640.87 492.898 2622.6 492.898Z" fill="white"/>
</svg>
